<?xml version="1.0" encoding="UTF-8" standalone="no"?>
<!-- Created with Inkscape (http://www.inkscape.org/) -->

<svg
   width="303.81653mm"
   height="50.948044mm"
   viewBox="0 0 303.81653 50.948044"
   version="1.1"
   id="svg5"
   xml:space="preserve"
   xmlns="http://www.w3.org/2000/svg"
   xmlns:svg="http://www.w3.org/2000/svg"><defs
     id="defs2" /><g
     id="layer1"
     transform="translate(-54.245862,-92.748674)"><path
       style="fill:#f68f33;stroke-width:0.264583"
       d="m 140.61744,143.19626 c -1.02684,-0.26929 -2.33217,-0.684 -2.90074,-0.92156 -0.56856,-0.23756 -1.23671,-0.6156 -1.48476,-0.84009 -0.42206,-0.38195 -0.38301,-0.57238 0.60823,-2.96647 0.58258,-1.40707 1.16292,-2.66621 1.28964,-2.79808 0.13634,-0.1419 0.85613,0.0407 1.76332,0.44731 0.84312,0.3779 2.29164,0.80895 3.21893,0.95788 0.92729,0.14894 2.23698,0.19862 2.91042,0.11042 0.67343,-0.0882 1.64115,-0.37001 2.15047,-0.62622 0.50932,-0.25621 1.1805,-0.74531 1.4915,-1.0869 0.311,-0.34158 0.81752,-1.12333 1.1256,-1.73721 0.30809,-0.61388 0.73343,-1.85892 0.94522,-2.76676 0.21178,-0.90784 0.33498,-1.7007 0.27376,-1.76191 -0.0612,-0.0612 -0.73479,0.44928 -1.49685,1.13443 -0.76205,0.68515 -1.81491,1.46478 -2.33968,1.7325 -0.52477,0.26771 -1.6847,0.63766 -2.57762,0.82208 -1.26326,0.26092 -1.98816,0.26751 -3.26702,0.0297 -0.90395,-0.1681 -2.11228,-0.61585 -2.68519,-0.99498 -0.72021,-0.47661 -1.25809,-1.15284 -1.74306,-2.1914 -0.60767,-1.30133 -0.70008,-1.83799 -0.69145,-4.01561 0.006,-1.47815 0.484,-5.89221 1.16074,-10.71563 0.63294,-4.51114 1.26689,-8.35091 1.40878,-8.53281 0.18432,-0.2363 1.30631,-0.33073 3.92975,-0.33073 h 3.67177 l -0.001,0.8599 c -5.3e-4,0.47294 -0.42443,3.83645 -0.94191,7.47447 -0.51749,3.63803 -0.95047,7.43978 -0.96219,8.44835 -0.0197,1.69345 0.0355,1.8826 0.7205,2.47184 0.57258,0.49252 0.92661,0.60111 1.55195,0.47604 0.44559,-0.0891 1.26139,-0.47474 1.8129,-0.85693 0.5515,-0.3822 1.47829,-1.40705 2.05953,-2.27745 0.58123,-0.87041 1.22805,-2.19243 1.43737,-2.93783 0.20933,-0.7454 0.69997,-3.97464 1.09033,-7.1761 0.39035,-3.20146 0.82788,-5.96966 0.97229,-6.15156 0.18742,-0.23608 1.31333,-0.33073 3.93433,-0.33073 h 3.6718 v 0.83078 c 0,0.45692 -0.65171,6.08263 -1.44825,12.50156 -0.79654,6.41893 -1.62213,12.33108 -1.83465,13.13811 -0.21252,0.80703 -0.64139,2.11423 -0.95304,2.90489 -0.31165,0.79067 -1.08447,2.16325 -1.71739,3.0502 -0.63291,0.88695 -1.54663,1.91435 -2.03049,2.2831 -0.48385,0.36875 -1.50253,0.98585 -2.26372,1.37133 -0.7612,0.38549 -2.13042,0.87687 -3.04271,1.09197 -0.9123,0.21509 -2.84934,0.38627 -4.30455,0.38041 -1.69365,-0.007 -3.31772,-0.18686 -4.51281,-0.50029 z m 24.0085,0.0254 c -0.2814,-0.17844 0.0844,-3.70757 1.91028,-18.42946 1.24209,-10.01482 2.36065,-18.31108 2.48571,-18.43613 0.12505,-0.12506 1.8848,-0.19412 3.91055,-0.15347 l 3.68317,0.0739 -0.0766,1.65365 c -0.0421,0.9095 -1e-4,1.65364 0.0934,1.65364 0.0935,0 0.77661,-0.54537 1.518,-1.21194 0.74138,-0.66657 1.77469,-1.42963 2.29623,-1.6957 0.52154,-0.26607 1.59932,-0.60235 2.39507,-0.74729 0.85071,-0.15494 2.00676,-0.17339 2.80586,-0.0448 0.74748,0.12031 1.83431,0.4612 2.41517,0.75754 0.58087,0.29634 1.54291,1.09181 2.13786,1.76771 0.59495,0.6759 1.32352,1.87513 1.61903,2.66496 0.29551,0.78983 0.64262,2.3775 0.77136,3.52816 0.13229,1.18246 0.13588,3.06081 0.008,4.31999 -0.12419,1.22534 -0.53071,3.19306 -0.90337,4.37273 -0.41594,1.31667 -1.19129,2.91293 -2.00806,4.13411 -0.73178,1.09409 -1.8293,2.39799 -2.43893,2.89754 -0.60963,0.49954 -1.7325,1.22172 -2.49526,1.60483 -0.76275,0.38311 -2.11602,0.82501 -3.00726,0.982 -1.17896,0.20767 -2.11583,0.20362 -3.43883,-0.0149 -1.00012,-0.16516 -2.35555,-0.56127 -3.01206,-0.88023 -0.74387,-0.3614 -1.2826,-0.48526 -1.4297,-0.3287 -0.12981,0.13817 -0.53396,2.73678 -0.89809,5.77467 -0.45064,3.75965 -0.77655,5.59599 -1.0206,5.75063 -0.19721,0.12496 -1.84683,0.2272 -3.66584,0.2272 -1.81901,0 -3.46392,-0.0993 -3.65534,-0.22071 z m 15.32989,-17.64154 c 0.63676,-0.22431 1.65684,-0.89715 2.26685,-1.49521 0.61,-0.59806 1.37055,-1.69446 1.69009,-2.43644 0.38583,-0.89589 0.62446,-2.1082 0.71038,-3.60894 0.11187,-1.95377 0.0518,-2.41195 -0.44331,-3.38249 -0.35466,-0.6952 -0.90167,-1.27947 -1.43675,-1.53463 -0.69826,-0.33298 -1.06998,-0.35658 -1.93741,-0.12301 -0.59035,0.15897 -1.60558,0.75751 -2.25607,1.33009 -0.73486,0.64685 -1.55246,1.77386 -2.15918,2.97632 -0.53707,1.06439 -1.23423,2.98823 -1.54925,4.27519 -0.40505,1.65478 -0.49536,2.46823 -0.30842,2.77812 0.14539,0.24101 0.78804,0.70609 1.42811,1.03351 0.64008,0.32743 1.54031,0.59532 2.0005,0.59532 0.46019,0 1.3577,-0.18353 1.99446,-0.40783 z M 60.614674,133.7266 c -0.498976,-0.25443 -1.247258,-0.88848 -1.662848,-1.409 -0.415591,-0.52051 -0.825509,-1.37707 -0.910928,-1.90344 -0.08542,-0.52638 -0.07541,-1.38298 0.02225,-1.90354 0.09766,-0.52057 0.545205,-1.36521 0.994547,-1.87698 0.449342,-0.51177 1.068547,-1.06553 1.376012,-1.23058 0.307465,-0.16505 1.26977,-0.36886 2.138457,-0.45291 l 1.57943,-0.15283 2.445324,-2.91041 c 1.344927,-1.60073 2.449887,-3.10378 2.455465,-3.34011 0.0056,-0.23634 -0.301816,-0.98785 -0.683099,-1.67004 -0.458651,-0.82062 -0.73773,-1.79458 -0.824709,-2.87815 -0.09317,-1.16069 -0.0068,-1.93609 0.296367,-2.66175 0.235308,-0.56317 0.427833,-1.22436 0.427833,-1.4693 0,-0.24494 -1.353866,-1.7811 -3.008592,-3.41369 -2.849362,-2.81125 -3.046316,-2.95401 -3.721391,-2.69734 -0.39204,0.14905 -1.151533,0.26839 -1.687763,0.26519 -0.536229,-0.003 -1.508603,-0.24787 -2.16083,-0.54371 -0.652227,-0.29585 -1.409037,-0.73972 -1.6818,-0.98638 -0.272763,-0.24666 -0.704202,-0.86519 -0.958752,-1.37451 -0.25455,-0.50933 -0.537391,-1.31715 -0.628534,-1.79516 -0.09114,-0.47802 -0.04333,-1.43979 0.106258,-2.13728 0.149585,-0.69749 0.623544,-1.69468 1.053243,-2.21598 0.429698,-0.5213 1.295255,-1.19663 1.923459,-1.50074 0.672103,-0.32536 1.664763,-0.55293 2.41191,-0.55293 0.866251,0 1.670529,0.21815 2.53106,0.68651 0.693736,0.37758 1.49472,1.00266 1.779965,1.38906 0.285244,0.38641 0.671224,1.16571 0.857731,1.73178 0.219719,0.66688 0.27963,1.60974 0.170171,2.67812 l -0.168934,1.64889 2.478867,2.48126 c 1.363376,1.36469 2.723315,2.69809 3.022087,2.9631 0.514795,0.45662 0.61027,0.45895 1.824512,0.0446 0.851985,-0.29073 1.896161,-0.40785 3.116409,-0.34955 l 1.835118,0.0877 0.612278,-1.57791 c 0.336753,-0.86785 0.612278,-1.78356 0.612278,-2.03491 0,-0.25134 -0.120764,-0.53163 -0.268364,-0.62285 -0.1476,-0.0912 -0.504788,-0.62929 -0.79375,-1.1957 -0.319704,-0.62667 -0.525386,-1.5552 -0.525386,-2.3718 0,-0.73807 0.184276,-1.78299 0.409503,-2.32203 0.225227,-0.53904 0.671711,-1.26118 0.992188,-1.60475 0.320476,-0.34357 0.999403,-0.83668 1.508726,-1.0958 0.509323,-0.25912 1.293053,-0.55027 1.741622,-0.647 0.448572,-0.0967 1.319327,-0.0627 1.935012,0.0756 0.615686,0.13833 1.586865,0.57545 2.158175,0.97137 0.65964,0.45713 1.29431,1.2422 1.738987,2.15109 0.592373,1.21077 0.676807,1.65828 0.548124,2.9051 -0.0977,0.94662 -0.398301,1.84587 -0.840314,2.5138 -0.37851,0.57197 -1.070388,1.27525 -1.537507,1.56286 -0.467119,0.28761 -1.325557,0.6512 -1.907641,0.80799 -0.582083,0.15678 -1.214824,0.3633 -1.406091,0.45893 -0.191265,0.0956 -0.695822,1.04147 -1.121238,2.10185 l -0.773486,1.92798 0.821844,1.45623 c 0.593595,1.05179 0.859134,1.92079 0.956114,3.12897 0.09471,1.17986 2.65e-4,2.07608 -0.32036,3.04153 -0.377912,1.13778 -0.396383,1.44529 -0.109455,1.82221 0.189846,0.24939 0.806143,0.89992 1.369546,1.44563 0.563407,0.5457 1.077746,0.99219 1.142977,0.99219 0.06523,0 0.561263,-0.19476 1.102294,-0.4328 0.570005,-0.25079 1.706935,-0.43643 2.70348,-0.44144 1.273281,-0.006 2.056043,0.15257 3.014904,0.61226 0.712311,0.34148 1.69377,1.01954 2.181019,1.50679 0.487252,0.48725 1.152547,1.38876 1.478437,2.00336 0.469455,0.88536 0.593476,1.55708 0.597104,3.23412 0.004,1.85372 -0.09235,2.29164 -0.775666,3.52519 -0.429136,0.77468 -1.222307,1.75864 -1.762603,2.18656 -0.540295,0.42792 -1.439341,0.97086 -1.997879,1.20652 -0.590434,0.24913 -1.756378,0.42997 -2.785396,0.43204 -1.393182,0.003 -2.082379,-0.14935 -3.238193,-0.71483 -0.852048,-0.41687 -1.856772,-1.19244 -2.393828,-1.84784 -0.509027,-0.62121 -1.105668,-1.6401 -1.325867,-2.26421 -0.220202,-0.62412 -0.400365,-1.70143 -0.400365,-2.39402 0,-0.6926 0.198458,-1.87376 0.441021,-2.62481 l 0.441018,-1.36554 -1.290969,-1.31068 c -0.710033,-0.72087 -1.474039,-1.30894 -1.697791,-1.30682 -0.223752,0.002 -0.942344,0.19029 -1.596872,0.41816 -0.773541,0.26931 -1.834361,0.38371 -3.030967,0.32688 l -1.840916,-0.0874 -2.573961,3.13359 -2.573961,3.13359 0.151542,1.80759 c 0.136192,1.62449 0.0812,1.92762 -0.542895,2.99256 -0.474997,0.81052 -1.056445,1.36021 -1.840045,1.73954 -0.630085,0.30502 -1.614034,0.5544 -2.186552,0.55417 -0.57252,-2.2e-4 -1.449198,-0.20858 -1.948174,-0.46302 z m 29.032349,-3.61247 c 0.392956,-0.20446 1.012121,-0.6903 1.375923,-1.07965 0.565026,-0.60471 0.661459,-0.95849 0.661459,-2.42672 0,-1.64142 -0.04371,-1.75886 -0.970852,-2.60852 -0.533969,-0.48935 -1.396389,-0.96955 -1.916491,-1.06713 -0.520099,-0.0976 -1.265806,-0.097 -1.657122,0.001 -0.391317,0.0982 -1.166006,0.63309 -1.72153,1.18862 -0.920184,0.92018 -1.009891,1.1364 -1.008304,2.43023 0.0011,0.96017 0.168323,1.6729 0.516009,2.20034 0.282845,0.42909 0.90714,0.98964 1.387319,1.24569 0.480179,0.25604 1.26592,0.47051 1.746089,0.47661 0.480168,0.006 1.194543,-0.15619 1.5875,-0.36064 z M 76.951882,116.71949 c 0.533639,-0.32535 1.083091,-0.99912 1.401169,-1.71818 0.382747,-0.86527 0.473881,-1.44957 0.339353,-2.17576 -0.115822,-0.62521 -0.541497,-1.35205 -1.149658,-1.96305 -0.592266,-0.59503 -1.333907,-1.03931 -1.917763,-1.14884 -0.686623,-0.12881 -1.28953,-0.0293 -2.162683,0.35693 -0.745019,0.32955 -1.416517,0.87318 -1.745892,1.41342 -0.343669,0.56369 -0.535589,1.34017 -0.536224,2.16948 -8.99e-4,1.1728 0.105312,1.39789 1.154823,2.4474 1.049511,1.04951 1.274599,1.15572 2.447396,1.15482 0.829315,-6.3e-4 1.60579,-0.19255 2.169479,-0.53622 z M 61.139814,99.83543 c 0.39573,-0.32044 0.602576,-0.77339 0.602576,-1.3195 0,-0.45736 -0.216891,-1.07123 -0.48198,-1.36415 -0.297861,-0.32913 -0.816128,-0.53258 -1.356707,-0.53258 -0.559129,0 -1.069367,0.20892 -1.414201,0.57906 -0.29671,0.31848 -0.539474,0.87635 -0.539474,1.23971 0,0.36337 0.25888,0.93623 0.575288,1.27303 0.327361,0.34846 0.884853,0.61237 1.293605,0.61237 0.395075,0 0.989477,-0.21957 1.320893,-0.48794 z m 58.362306,33.0204 c -0.85307,-0.13293 -2.16275,-0.52711 -2.91041,-0.87598 -0.74766,-0.34886 -1.84399,-1.0568 -2.43628,-1.57319 -0.5923,-0.5164 -1.44256,-1.63256 -1.88947,-2.48037 -0.44691,-0.8478 -0.94458,-2.1724 -1.10592,-2.94355 -0.16134,-0.77115 -0.29334,-2.44874 -0.29334,-3.72799 0,-1.44883 0.19675,-3.09518 0.52176,-4.36596 0.28696,-1.12203 0.97157,-2.89689 1.52135,-3.94413 0.56809,-1.08212 1.65244,-2.55726 2.51192,-3.41719 0.83177,-0.83221 2.08701,-1.80434 2.78942,-2.16027 0.70241,-0.35594 1.95683,-0.84476 2.78759,-1.08627 0.89753,-0.26092 2.45229,-0.43911 3.83138,-0.43911 1.27649,0 2.91341,0.14528 3.63759,0.32284 0.72418,0.17756 1.88225,0.60479 2.57348,0.9494 0.69123,0.34461 1.79256,1.13993 2.4474,1.76737 0.65483,0.62745 1.18642,1.31005 1.18129,1.51689 -0.005,0.20685 -1.21442,1.26906 -2.68731,2.36046 -1.4729,1.09141 -2.7887,2.0275 -2.92402,2.08021 -0.13531,0.0527 -0.63038,-0.2767 -1.10015,-0.73202 -0.46978,-0.45532 -1.26226,-0.94491 -1.76108,-1.08797 -0.49882,-0.14306 -1.32454,-0.18469 -1.83493,-0.0925 -0.51039,0.0922 -1.22564,0.32012 -1.58944,0.50654 -0.3638,0.18642 -1.03558,0.73605 -1.49283,1.22141 -0.45726,0.48536 -1.07634,1.37199 -1.37575,1.9703 -0.2994,0.5983 -0.68926,1.87422 -0.86636,2.83537 -0.25421,1.37964 -0.2531,2.0554 0.005,3.20988 0.21876,0.97754 0.58765,1.72272 1.11272,2.2478 0.43201,0.432 1.1786,0.85921 1.65909,0.94935 0.48049,0.0901 1.34538,0.0369 1.92198,-0.1184 0.5766,-0.15526 1.53722,-0.70074 2.13471,-1.21217 0.59749,-0.51143 1.2103,-0.92987 1.36181,-0.92987 0.1515,0 1.5306,0.80367 3.06466,1.78594 1.53406,0.98226 2.79016,1.91932 2.79133,2.08234 10e-4,0.16303 -0.65656,0.94987 -1.46164,1.74855 -0.80507,0.79867 -2.06715,1.78054 -2.80463,2.18193 -0.73747,0.40138 -1.95401,0.89187 -2.70342,1.08997 -0.7494,0.19811 -2.19599,0.41462 -3.21464,0.48114 -1.01864,0.0665 -2.55005,0.0122 -3.40311,-0.12074 z m 114.84982,0.003 c -0.84171,-0.13151 -2.08238,-0.48328 -2.75705,-0.78172 -0.67466,-0.29844 -1.72678,-0.95242 -2.33802,-1.45329 -0.61125,-0.50087 -1.47801,-1.48204 -1.92612,-2.18037 -0.44812,-0.69833 -0.99929,-1.97814 -1.22483,-2.84402 -0.22553,-0.86588 -0.40799,-2.59111 -0.40546,-3.83384 0.003,-1.24273 0.17895,-3.08253 0.39205,-4.08843 0.2131,-1.00591 0.75368,-2.61153 1.20129,-3.56805 0.44761,-0.95652 1.29232,-2.37287 1.87713,-3.14745 0.58482,-0.77458 1.77158,-1.92974 2.63725,-2.56701 0.86568,-0.63727 2.24565,-1.40999 3.06661,-1.71715 0.82096,-0.30716 2.31435,-0.66165 3.31865,-0.78775 1.06879,-0.13421 2.54002,-0.12816 3.54789,0.0146 0.94704,0.13411 2.36338,0.54732 3.14742,0.91823 0.78536,0.37153 1.88416,1.19542 2.44683,1.83465 0.56172,0.63815 1.16133,1.62761 1.33246,2.19881 0.17114,0.5712 0.31116,1.56907 0.31116,2.21748 0,0.64842 -0.19958,1.76469 -0.44352,2.4806 -0.29172,0.85614 -0.9077,1.76584 -1.79968,2.65782 -0.84926,0.84926 -2.09273,1.70636 -3.32679,2.29308 -1.08385,0.5153 -2.98517,1.18684 -4.22516,1.4923 -1.23999,0.30546 -2.9664,0.64392 -3.83646,0.75213 -1.34254,0.16697 -1.59421,0.28283 -1.66304,0.76556 -0.049,0.3438 0.24403,0.93912 0.74083,1.50494 0.45206,0.51488 1.24046,1.07426 1.752,1.24309 0.52679,0.17385 1.34882,0.22838 1.89586,0.12576 0.53119,-0.0996 1.26757,-0.34261 1.6364,-0.5399 0.36883,-0.19729 1.01654,-0.66333 1.43936,-1.03565 0.42282,-0.37231 0.92212,-0.67694 1.10957,-0.67694 0.18744,0 1.47861,0.66614 2.86926,1.48031 1.67648,0.98151 2.52845,1.63723 2.52845,1.946 0,0.25612 -0.62508,1.05624 -1.38906,1.77803 -0.76398,0.72179 -1.92484,1.62186 -2.57969,2.00014 -0.65484,0.37829 -1.82274,0.87224 -2.59533,1.09767 -0.77259,0.22543 -2.26087,0.46604 -3.30729,0.53469 -1.04642,0.0687 -2.59126,0.0172 -3.43297,-0.11429 z m 2.24497,-15.10123 c 0.77114,-0.1613 1.97699,-0.60204 2.67966,-0.97942 0.70267,-0.37738 1.44681,-1.0134 1.65364,-1.41338 0.20684,-0.40005 0.37607,-0.99173 0.37607,-1.31492 0,-0.32319 -0.19704,-0.80536 -0.43788,-1.07148 -0.27709,-0.30618 -0.80512,-0.48385 -1.43798,-0.48385 -0.55006,0 -1.29228,0.11109 -1.6494,0.24686 -0.3571,0.13577 -1.08688,0.63107 -1.62171,1.10066 -0.53484,0.46959 -1.26244,1.42611 -1.61689,2.1256 -0.35446,0.69948 -0.64447,1.45434 -0.64447,1.67746 0,0.25415 0.24219,0.40567 0.64843,0.40567 0.35664,0 1.27938,-0.13197 2.05053,-0.29327 z m -40.6234,14.64685 c -0.0661,-0.10915 0.97021,-9.00907 2.30299,-19.77761 l 2.42323,-19.57917 3.89911,-0.0732 3.89911,-0.0732 -0.002,0.86697 c -0.001,0.47684 -0.41439,4.12834 -0.91843,8.11446 -0.50404,3.98611 -0.85283,7.35039 -0.77509,7.47617 0.0777,0.12578 0.69939,-0.23573 1.38144,-0.80336 0.68206,-0.56763 1.86102,-1.3422 2.61991,-1.72125 0.7589,-0.37906 2.12851,-0.79523 3.04359,-0.92482 0.9246,-0.13094 2.28598,-0.13727 3.06422,-0.0142 0.77024,0.12175 1.8127,0.47617 2.31657,0.78758 0.50387,0.31141 1.24212,1.12138 1.64056,1.79994 0.64865,1.10469 0.73385,1.53819 0.81453,4.14416 0.0704,2.27517 -0.14644,4.72142 -0.99361,11.20756 -0.59604,4.56342 -1.14925,8.40319 -1.22936,8.53281 -0.08,0.12962 -1.80911,0.23567 -3.84238,0.23567 -3.01037,0 -3.7246,-0.0723 -3.84627,-0.38937 -0.0822,-0.21416 0.28818,-3.57767 0.82303,-7.47448 0.53485,-3.89681 0.97962,-7.89082 0.98838,-8.87558 0.0121,-1.36675 -0.0964,-1.91462 -0.45887,-2.3151 -0.29579,-0.32685 -0.81339,-0.52463 -1.37296,-0.52463 -0.49399,0 -1.22585,0.16945 -1.62636,0.37656 -0.4005,0.20711 -1.23836,0.93003 -1.86191,1.6065 -0.62354,0.67646 -1.42687,1.89281 -1.78517,2.703 -0.3583,0.81018 -0.8165,2.1067 -1.01822,2.88115 -0.20172,0.77445 -0.61546,3.52607 -0.91942,6.11471 -0.30396,2.58864 -0.6116,4.97451 -0.68365,5.30193 -0.12846,0.58379 -0.20487,0.59531 -3.9468,0.59531 -2.09869,0 -3.86991,-0.0893 -3.93605,-0.19843 z m 55.54246,-0.0286 c -0.0772,-0.12485 0.56632,-5.97838 1.42995,-13.00785 0.86364,-7.02948 1.67333,-12.88395 1.79932,-13.00993 0.12598,-0.12599 1.88649,-0.19581 3.91224,-0.15516 l 3.68318,0.0739 -0.0811,1.52135 c -0.0446,0.83674 -0.003,1.52135 0.0917,1.52135 0.095,0 0.72683,-0.49234 1.40401,-1.09408 0.67717,-0.60175 1.82653,-1.3745 2.55414,-1.71721 0.7276,-0.34272 1.7694,-0.62428 2.3151,-0.6257 0.94763,-0.002 0.99129,0.036 0.9721,0.85731 -0.0111,0.47294 -0.21942,2.34817 -0.46303,4.16718 l -0.44292,3.3073 -1.71979,0.15058 c -0.94589,0.0828 -1.97553,0.28886 -2.28809,0.45787 -0.31256,0.169 -1.05273,0.85763 -1.64482,1.53029 -0.59209,0.67265 -1.31003,1.84709 -1.59542,2.60986 -0.28539,0.76277 -0.64113,2.08997 -0.79053,2.94933 -0.1494,0.85937 -0.46435,3.34842 -0.69989,5.53123 -0.23554,2.18281 -0.53607,4.23664 -0.66783,4.56406 -0.23241,0.5775 -0.35013,0.59531 -3.9338,0.59531 -2.03183,0 -3.75736,-0.10215 -3.83452,-0.227 z M 54.805623,122.13029 c -0.307869,-0.39139 -0.559761,-0.82054 -0.559761,-0.95366 0,-0.13312 0.173825,-0.57818 0.386279,-0.98902 0.212453,-0.41084 0.652989,-0.81673 0.978968,-0.90198 0.325979,-0.0852 0.893524,-0.0108 1.261211,0.16543 0.367688,0.17622 0.783658,0.6478 0.924378,1.04793 0.20563,0.58471 0.149764,0.87025 -0.284587,1.4546 -0.341075,0.45885 -0.836721,0.75681 -1.343585,0.80769 -0.612801,0.0615 -0.935802,-0.088 -1.362903,-0.63099 z m 33.968365,-5.27806 c -0.582084,-0.20275 -1.325735,-0.70071 -1.652561,-1.10657 -0.326824,-0.40585 -0.666041,-1.11711 -0.753814,-1.58057 -0.08777,-0.46346 -0.02598,-1.24749 0.137321,-1.74229 0.163301,-0.49481 0.659165,-1.24671 1.101918,-1.6709 0.701861,-0.67242 1.003459,-0.77124 2.353819,-0.77124 1.286899,0 1.668523,0.11185 2.256724,0.66146 0.389352,0.3638 0.875194,0.98296 1.079648,1.37592 0.204457,0.39296 0.371738,1.11949 0.371738,1.61452 0,0.49932 -0.26945,1.30032 -0.605191,1.79907 -0.332853,0.49447 -0.8984,1.03332 -1.256771,1.19746 -0.35837,0.16414 -0.949237,0.36444 -1.313039,0.44511 -0.363803,0.0807 -1.137709,-0.0192 -1.719792,-0.22197 z M 57.56605,114.32211 c -0.53495,-0.46969 -1.04349,-1.2336 -1.194465,-1.79428 -0.171792,-0.63798 -0.173651,-1.29961 -0.0054,-1.9091 0.141648,-0.513 0.612849,-1.27314 1.047113,-1.68919 0.617386,-0.5915 1.093762,-0.77895 2.184486,-0.85959 1.079824,-0.0798 1.592746,0.021 2.27073,0.44656 0.4817,0.30233 1.047247,0.95998 1.256771,1.46144 0.209525,0.50147 0.380954,1.27868 0.380954,1.72714 0,0.44846 -0.176215,1.15615 -0.391589,1.57264 -0.215374,0.41648 -0.70768,1.00588 -1.094015,1.30977 -0.512787,0.40336 -1.08318,0.55253 -2.112746,0.55253 -1.198999,0 -1.549905,-0.12255 -2.341879,-0.81792 z m 35.246078,-8.72645 c -0.252876,-0.14733 -0.590267,-0.5117 -0.749761,-0.80971 -0.212505,-0.39707 -0.207306,-0.74144 0.01945,-1.28889 0.170191,-0.41088 0.645607,-0.88629 1.056484,-1.05649 0.550938,-0.2282 0.890671,-0.23257 1.294155,-0.0166 0.300911,0.16105 0.668901,0.52038 0.817756,0.79852 0.148857,0.27814 0.270647,0.74702 0.270647,1.04196 0,0.29494 -0.260575,0.77902 -0.579056,1.07573 -0.318482,0.29671 -0.824498,0.53585 -1.12448,0.53142 -0.299982,-0.004 -0.752322,-0.12858 -1.0052,-0.27591 z"
       id="path3068" /><path
       style="fill:#080808;stroke-width:0.264583"
       d="m 284.65882,132.88975 c -1.0063,-0.19987 -2.70829,-0.78066 -3.78221,-1.29066 -1.21643,-0.57768 -2.55168,-1.49874 -3.54171,-2.44307 -1.13661,-1.08413 -1.88805,-2.12225 -2.63876,-3.64541 -0.62052,-1.25903 -1.20988,-2.9774 -1.44166,-4.20342 -0.21564,-1.14058 -0.39207,-3.05975 -0.39207,-4.26482 0,-1.20506 0.18374,-3.24842 0.40831,-4.54079 0.22456,-1.29237 0.74502,-3.32873 1.15658,-4.52525 0.41155,-1.19651 1.26961,-3.0964 1.90679,-4.22196 0.72901,-1.28774 1.94328,-2.83544 3.2752,-4.17451 1.16416,-1.17042 2.89057,-2.57757 3.83645,-3.127 0.94589,-0.54942 2.6723,-1.31505 3.83646,-1.70138 1.83632,-0.6094 2.57223,-0.70487 5.55625,-0.72084 2.96273,-0.0159 3.71285,0.0711 5.41066,0.62708 1.08409,0.35502 2.84256,1.22837 3.9077,1.94078 1.06515,0.71241 2.35106,1.83805 2.85758,2.50142 0.50651,0.66337 0.92094,1.36444 0.92094,1.55795 0,0.1935 -1.16086,1.25668 -2.57969,2.36261 -1.41883,1.10593 -2.85153,2.14203 -3.18378,2.30243 -0.53281,0.25723 -0.73574,0.16286 -1.71979,-0.79973 -0.61364,-0.60026 -1.81305,-1.40964 -2.66536,-1.79862 -1.3639,-0.62246 -1.79208,-0.6927 -3.57188,-0.58591 -1.4805,0.0888 -2.38201,0.30508 -3.36536,0.80729 -0.73873,0.37729 -1.98889,1.38464 -2.77812,2.23856 -0.78924,0.85393 -1.75856,2.21626 -2.15404,3.0274 -0.39548,0.81115 -0.97781,2.4129 -1.29406,3.55945 -0.39672,1.43828 -0.57857,2.86398 -0.58648,4.59818 -0.008,1.72066 0.13969,2.99079 0.46774,4.0265 0.26357,0.83213 0.89278,1.99611 1.39824,2.58663 0.50546,0.59051 1.26722,1.25372 1.6928,1.4738 0.42558,0.22008 1.42349,0.52024 2.21758,0.66704 1.01075,0.18685 1.93623,0.1776 3.0856,-0.0308 0.90299,-0.16374 2.21283,-0.58707 2.91075,-0.94074 0.80377,-0.4073 1.31864,-0.86045 1.40451,-1.23615 0.0746,-0.32623 0.24266,-1.30751 0.37357,-2.18064 0.1309,-0.87312 0.18395,-1.67679 0.11789,-1.78593 -0.0661,-0.10914 -1.41574,-0.19844 -2.99929,-0.19844 -1.58355,0 -2.95021,-0.11493 -3.03702,-0.25539 -0.0868,-0.14046 0.0321,-1.71075 0.26421,-3.48952 0.23214,-1.77878 0.48176,-3.33073 0.55472,-3.44878 0.073,-0.11805 3.28452,-0.21464 7.1368,-0.21464 6.32247,0 7.02079,0.0434 7.17516,0.44564 0.094,0.2451 -0.2123,3.84674 -0.68079,8.00364 -0.46849,4.15691 -0.9159,7.88578 -0.99425,8.28639 -0.10948,0.55975 -0.57384,0.98465 -2.00575,1.83533 -1.02481,0.60883 -2.81483,1.44368 -3.97782,1.85523 -1.16299,0.41156 -3.12854,0.92511 -4.36789,1.14123 -1.23934,0.21612 -3.16049,0.38177 -4.26921,0.36809 -1.10873,-0.0137 -2.8392,-0.18839 -3.8455,-0.38825 z m 34.26752,-0.11042 c -1.07687,-0.29209 -2.47678,-0.83513 -3.1109,-1.20675 -0.63412,-0.37162 -1.61284,-1.15427 -2.17491,-1.73923 -0.56208,-0.58495 -1.33437,-1.70156 -1.7162,-2.48135 -0.38182,-0.7798 -0.87176,-2.17087 -1.08874,-3.09129 -0.21699,-0.92041 -0.3972,-2.8641 -0.40048,-4.31931 -0.004,-1.59961 0.52044,-6.93534 1.32527,-13.49375 0.73218,-5.96635 1.39021,-11.1158 1.4623,-11.44322 0.12925,-0.58706 0.18968,-0.59532 4.35936,-0.59532 h 4.22829 v 0.64008 c 0,0.35203 -0.60461,5.50149 -1.34357,11.44322 -0.96328,7.7454 -1.31555,11.43979 -1.24458,13.05238 0.0764,1.73556 0.23928,2.49885 0.7133,3.34225 0.34458,0.6131 1.05209,1.33907 1.61134,1.65338 0.67452,0.37911 1.46065,0.56036 2.4304,0.56036 1.00358,0 1.83666,-0.20097 2.77833,-0.67022 0.7957,-0.39651 1.62877,-1.07976 2.03993,-1.67306 0.38223,-0.55157 0.92917,-1.66918 1.21541,-2.48358 0.34242,-0.97424 1.02169,-5.53795 1.98586,-13.34204 0.80598,-6.52372 1.51893,-12.01014 1.58432,-12.19204 0.0882,-0.24521 1.17745,-0.33073 4.21263,-0.33073 2.25155,0 4.16065,0.10827 4.24243,0.2406 0.0818,0.13232 -0.50342,5.52723 -1.30045,11.98868 -0.79703,6.46144 -1.63178,12.61627 -1.85499,13.67738 -0.22321,1.06111 -0.76142,2.81732 -1.19602,3.90268 -0.4346,1.08537 -1.14616,2.49078 -1.58124,3.12316 -0.43509,0.63237 -1.17964,1.53834 -1.65457,2.01327 -0.47492,0.47492 -1.46329,1.24718 -2.19639,1.71613 -0.73309,0.46896 -2.16208,1.11322 -3.17553,1.4317 -1.31657,0.41373 -2.74913,0.61169 -5.01765,0.69338 -2.60612,0.0938 -3.52582,0.0192 -5.13295,-0.41676 z m 25.90762,-0.86553 c 0.003,-0.47294 1.00205,-8.97679 2.22082,-18.89744 1.21877,-9.92066 2.29516,-18.16573 2.39199,-18.3224 0.1138,-0.18413 1.66732,-0.28485 4.39376,-0.28485 2.31974,0 4.21958,0.0893 4.22186,0.19844 0.002,0.10914 -1.01656,8.59234 -2.26409,18.85156 -1.24754,10.25922 -2.31723,18.80196 -2.3771,18.98386 -0.0811,0.2463 -1.19161,0.33073 -4.35048,0.33073 h -4.24164 l 0.005,-0.8599 z"
       id="path3082" /></g></svg>
