<?xml version="1.0" encoding="UTF-8" standalone="no"?>
<!-- Created with Inkscape (http://www.inkscape.org/) -->

<svg
   width="41.274998mm"
   height="41.440891mm"
   viewBox="0 0 41.274998 41.440891"
   version="1.1"
   id="svg5"
   xml:space="preserve"
   xmlns="http://www.w3.org/2000/svg"
   xmlns:svg="http://www.w3.org/2000/svg"><defs
     id="defs2"><clipPath
       clipPathUnits="userSpaceOnUse"
       id="clipPath1649"><path
         id="path1651"
         style="fill:#ff0000;fill-opacity:1;fill-rule:nonzero;stroke:none;stroke-width:0.264583"
         d="M 54.245862,92.748674 V 143.69647 H 269.59964 V 92.748674 Z m 60.316728,2.397786 c 0.57995,-0.02494 1.32683,0.388957 1.8495,1.349789 0.2575,0.473354 0.48449,0.96435 0.77205,1.420068 3.4918,5.533743 7.49463,10.760573 11.43599,15.973183 3.55083,4.6961 7.14465,9.35904 10.71408,14.04101 1.56831,2.05695 3.13683,4.11373 4.70514,6.17068 1.51585,1.98814 -0.49282,3.51983 -2.00866,1.53169 l -4.70463,-6.1712 c -3.57407,-4.68806 -7.17341,-9.35718 -10.72854,-14.05961 -3.5157,-4.65026 -5.86364,-7.7568 -9.08885,-12.43593 -0.87937,-1.27579 -1.75489,-2.55622 -2.56212,-3.878835 -0.36946,-0.605342 -0.64169,-1.264685 -0.96273,-1.897041 -0.63662,-1.253964 -0.16687,-2.011736 0.57877,-2.043804 z" /></clipPath></defs><g
     id="layer1"
     transform="translate(-54.245862,-92.748674)"><path
       id="path3068"
       clip-path="url(#clipPath1649)"
       style="fill:#f68f33;stroke-width:0.264583"
       d="m 82.556795,92.753325 c -0.350718,-0.0137 -0.680568,0.0023 -0.904854,0.05064 -0.448566,0.09673 -1.232173,0.387869 -1.741496,0.646989 -0.50932,0.259117 -1.188478,0.75197 -1.508951,1.09554 -0.320477,0.34357 -0.766961,1.065516 -0.992188,1.604553 -0.225227,0.53904 -0.409277,1.584272 -0.409277,2.322339 0,0.816597 0.205845,1.745284 0.525549,2.371954 0.288962,0.56641 0.64615,1.10407 0.79375,1.19527 0.1476,0.0912 0.268201,0.37188 0.268201,0.62322 0,0.25135 -0.275613,1.16665 -0.612366,2.0345 l -0.612366,1.5782 -1.83503,-0.0878 c -1.220245,-0.0583 -2.264107,0.0591 -3.116089,0.34985 -1.214239,0.41435 -1.3099,0.41174 -1.824695,-0.045 -0.298769,-0.26501 -1.658667,-1.59844 -3.022037,-2.96313 l -2.478919,-2.48098 0.168982,-1.648999 c 0.109459,-1.068377 0.0497,-2.010995 -0.170015,-2.677872 -0.186507,-0.56607 -0.572585,-1.345787 -0.857829,-1.732194 -0.285245,-0.3864 -1.08652,-1.011483 -1.780253,-1.389063 -0.860528,-0.468357 -1.664864,-0.686263 -2.531112,-0.686263 -0.747144,0 -1.739639,0.227578 -2.411739,0.552938 -0.628201,0.30411 -1.493699,0.979384 -1.923397,1.500684 -0.429696,0.521297 -0.903583,1.518398 -1.053165,2.215885 -0.149588,0.697487 -0.197594,1.65932 -0.106454,2.137337 0.09114,0.47801 0.373836,1.285917 0.628386,1.795247 0.254547,0.50929 0.686351,1.12793 0.959114,1.37459 0.272763,0.24666 1.029327,0.69065 1.681551,0.9865 0.652227,0.29584 1.62488,0.54064 2.161109,0.54364 0.536227,0.003 1.295712,-0.11605 1.687752,-0.2651 0.675072,-0.25667 0.871867,-0.11426 3.72122,2.69699 1.65472,1.63259 3.008602,3.16881 3.008602,3.41375 0,0.24494 -0.192573,0.90599 -0.427881,1.46916 -0.303167,0.72566 -0.389276,1.50116 -0.296106,2.66185 0.08698,1.08357 0.365588,2.05776 0.824239,2.87838 0.381283,0.68219 0.688762,1.43332 0.683162,1.66966 -0.0056,0.23633 -1.110223,1.73964 -2.455147,3.34037 l -2.445329,2.91041 -1.579748,0.15297 c -0.868684,0.0841 -1.830906,0.28763 -2.138371,0.45268 -0.307465,0.16505 -0.926804,0.71865 -1.376143,1.23042 -0.449342,0.51177 -0.896595,1.35683 -0.994255,1.8774 -0.09766,0.52056 -0.107643,1.37687 -0.02222,1.90325 0.08542,0.52634 0.495465,1.38327 0.911056,1.90375 0.415587,0.52052 1.163455,1.15427 1.662431,1.4087 0.498973,0.25444 1.375684,0.46281 1.948201,0.46303 0.572515,2.3e-4 1.556862,-0.24896 2.186947,-0.55398 0.783597,-0.37933 1.364684,-0.92893 1.839681,-1.73942 0.624092,-1.06494 0.679311,-1.3681 0.543119,-2.99259 l -0.151412,-1.80764 2.574003,-3.13366 2.573486,-3.13366 1.841232,0.0873 c 1.1966,0.0568 2.257284,-0.0578 3.030822,-0.32711 0.654528,-0.22787 1.37305,-0.41607 1.596802,-0.41807 0.223752,-0.002 0.988055,0.58603 1.698088,1.3069 l 1.290877,1.31051 -0.441317,1.36581 c -0.24256,0.75105 -0.4408,1.93205 -0.4408,2.62465 0,0.69259 0.180291,1.77005 0.400493,2.39417 0.220196,0.62411 0.816476,1.64273 1.3255,2.26394 0.537056,0.6554 1.542124,1.43108 2.394169,1.84795 1.155811,0.56548 1.844867,0.7182 3.238046,0.7152 1.029012,-0.002 2.194928,-0.18288 2.785359,-0.43201 0.558538,-0.23566 1.457519,-0.77873 1.997811,-1.20665 0.540296,-0.42792 1.33355,-1.41175 1.762683,-2.18643 0.683316,-1.23355 0.779663,-1.67164 0.775663,-3.52536 -0.0036,-1.67704 -0.12741,-2.34907 -0.596862,-3.23443 -0.32589,-0.6146 -0.991214,-1.51573 -1.478463,-2.00298 -0.487249,-0.48725 -1.468954,-1.1654 -2.181262,-1.50688 -0.958858,-0.45969 -1.741528,-0.61837 -3.014803,-0.61237 -0.996542,0.005 -2.133709,0.19053 -2.703711,0.44132 -0.541031,0.23804 -1.037029,0.43305 -1.102259,0.43305 -0.06523,0 -0.579161,-0.44649 -1.142565,-0.99219 -0.563403,-0.54571 -1.180097,-1.19652 -1.369943,-1.44591 -0.286925,-0.37692 -0.268355,-0.68433 0.109554,-1.82211 0.320625,-0.96545 0.415104,-1.86184 0.320394,-3.04167 -0.09698,-1.20818 -0.362419,-2.07671 -0.956014,-3.1285 l -0.821655,-1.45624 0.773079,-1.92805 c 0.425416,-1.06035 0.930114,-2.00659 1.121379,-2.10219 0.191267,-0.0956 0.824033,-0.30211 1.406116,-0.45889 0.582081,-0.15679 1.440775,-0.52009 1.907894,-0.8077 0.467116,-0.28761 1.158866,-0.99124 1.537373,-1.56321 0.442013,-0.66793 0.742559,-1.566932 0.840259,-2.513549 0.128683,-1.246814 0.04409,-1.694482 -0.548287,-2.905249 -0.444674,-0.908887 -1.079272,-1.693643 -1.738912,-2.150773 -0.571307,-0.395917 -1.542322,-0.833187 -2.158008,-0.971517 -0.30784,-0.06915 -0.679707,-0.11239 -1.030428,-0.12609 z m -22.65288,3.865914 c 0.540576,0 1.058645,0.203654 1.356506,0.532784 0.265089,0.29292 0.482141,0.906381 0.482141,1.363741 0,0.546107 -0.20682,0.999376 -0.602547,1.319816 -0.331416,0.26837 -0.925775,0.48783 -1.32085,0.48783 -0.408749,0 -0.966617,-0.26391 -1.293978,-0.61237 -0.316405,-0.3368 -0.575158,-0.909938 -0.575158,-1.273308 0,-0.363357 0.242792,-0.921237 0.539502,-1.239717 0.344831,-0.37014 0.855255,-0.578776 1.414384,-0.578776 z m 33.936946,5.646681 c -0.204236,0.003 -0.427333,0.0606 -0.702799,0.17467 -0.410877,0.1702 -0.886076,0.64539 -1.056267,1.05627 -0.226753,0.54742 -0.232133,0.89225 -0.01964,1.28932 0.159494,0.29801 0.496952,0.66193 0.749825,0.80926 0.252878,0.1473 0.705125,0.27195 1.005107,0.27595 0.299982,0.004 0.806,-0.23453 1.124479,-0.53124 0.318481,-0.29671 0.579293,-0.78096 0.579293,-1.0759 0,-0.29494 -0.121928,-0.76366 -0.270785,-1.0418 -0.148852,-0.27814 -0.51661,-0.63735 -0.817521,-0.7984 -0.201739,-0.10798 -0.387459,-0.16075 -0.591695,-0.15813 z m -33.528186,5.78105 c -0.21053,-0.005 -0.444729,0.003 -0.714685,0.0233 -1.090721,0.0806 -1.567496,0.2684 -2.184879,0.8599 -0.434264,0.41603 -0.905317,1.1763 -1.046965,1.6893 -0.168251,0.60949 -0.166137,1.27095 0.0057,1.90893 0.150975,0.56066 0.659293,1.32451 1.194243,1.7942 0.791971,0.69537 1.14298,0.81804 2.341976,0.81804 1.029563,0 1.599748,-0.14906 2.112532,-0.55242 0.386335,-0.30389 0.878619,-0.89352 1.09399,-1.31 0.215374,-0.41649 0.391708,-1.12405 0.391708,-1.57251 0,-0.44846 -0.171331,-1.22556 -0.380856,-1.72703 -0.209521,-0.50146 -0.775073,-1.15908 -1.25677,-1.46141 -0.508488,-0.31917 -0.924388,-0.45562 -1.555978,-0.47025 z m 14.807365,1.61437 c 0.166722,0.003 0.333223,0.0205 0.504879,0.0527 0.583853,0.10953 1.325449,0.55373 1.917712,1.14876 0.608161,0.611 1.033979,1.33799 1.149801,1.96319 0.134528,0.72619 0.04323,1.31031 -0.339514,2.17558 -0.318078,0.71906 -0.867312,1.39289 -1.400948,1.71824 -0.563689,0.34367 -1.340065,0.53577 -2.169377,0.5364 -1.172794,9e-4 -1.397888,-0.10546 -2.447396,-1.15497 -1.049508,-1.04951 -1.155867,-1.27459 -1.154968,-2.44739 6.35e-4,-0.82931 0.192735,-1.60569 0.536401,-2.16938 0.329375,-0.54023 1.000614,-1.0838 1.74563,-1.41335 0.654862,-0.28967 1.157617,-0.41804 1.65778,-0.40979 z m 14.840438,0.31987 c -1.350357,0 -1.652001,0.0986 -2.353862,0.77102 -0.44275,0.42419 -0.93844,1.1764 -1.101741,1.67121 -0.163301,0.49479 -0.225229,1.27857 -0.137459,1.74201 0.08777,0.46346 0.427135,1.17494 0.753959,1.58079 0.326823,0.40586 1.070531,0.90364 1.652612,1.10639 0.58208,0.20277 1.355989,0.30291 1.719792,0.22221 0.363799,-0.0807 0.954728,-0.28131 1.313098,-0.44545 0.358368,-0.16414 0.923918,-0.70288 1.256771,-1.19735 0.335738,-0.49875 0.605131,-1.29953 0.605131,-1.79885 0,-0.49503 -0.167097,-1.22193 -0.371554,-1.61489 -0.204454,-0.39296 -0.690688,-1.01183 -1.080037,-1.37563 -0.588201,-0.54961 -0.969814,-0.66146 -2.25671,-0.66146 z m -34.066655,9.27024 c -0.104791,0.002 -0.201175,0.0133 -0.28267,0.0346 -0.325976,0.0853 -0.766815,0.49143 -0.979268,0.90227 -0.212454,0.41084 -0.386023,0.85545 -0.386023,0.98857 0,0.13312 0.251787,0.56256 0.559656,0.95395 0.427098,0.54299 0.750426,0.69247 1.363224,0.63097 0.506864,-0.0509 1.002515,-0.34885 1.343587,-0.8077 0.434351,-0.58435 0.489848,-0.86999 0.284221,-1.4547 -0.14072,-0.40011 -0.556287,-0.87177 -0.923975,-1.04799 -0.275765,-0.13217 -0.664372,-0.20675 -0.978752,-0.19999 z m 32.026469,3.60856 c 0.300354,-2e-4 0.616902,0.0241 0.876949,0.0729 0.520102,0.0976 1.382194,0.57777 1.916163,1.06712 0.927139,0.84966 0.971,0.96669 0.971,2.60811 0,1.46821 -0.09643,1.82202 -0.661459,2.42672 -0.363799,0.38935 -0.983187,0.87558 -1.376143,1.08004 v -5.2e-4 c -0.392957,0.20444 -1.107335,0.3667 -1.5875,0.3607 -0.480169,-0.006 -1.265451,-0.22041 -1.74563,-0.47645 -0.480176,-0.25605 -1.104667,-0.81683 -1.387512,-1.24592 -0.347686,-0.52744 -0.515148,-1.24023 -0.516248,-2.20038 -0.0016,-1.29383 0.08854,-1.50965 1.008724,-2.42983 0.555524,-0.55553 1.330028,-1.09088 1.721342,-1.18908 0.195658,-0.049 0.479963,-0.0732 0.780314,-0.0734 z" /></g></svg>
